<svg width="259" height="74" viewBox="0 0 259 74" fill="none" xmlns="http://www.w3.org/2000/svg">
<path fill-rule="evenodd" clip-rule="evenodd" d="M132.482 29.7976V0.310059H139.801V11.0877H155.499V17.7329H139.801V29.7976C139.801 33.86 141.894 35.4535 144.914 35.4535C147.935 35.4535 150.019 33.9213 150.019 29.7976V28.9921H157.347V29.7976C157.347 38.2289 152.295 42.2913 144.914 42.2913C137.534 42.2913 132.482 38.2289 132.482 29.7976ZM79.0575 10.2825C71.1253 10.2825 65.7058 14.6514 65.7058 23.8268L65.7233 41.4861H73.0427V23.8356C73.0427 18.8801 75.5029 17.1291 79.075 17.1291C82.6472 17.1291 85.1074 18.9064 85.1074 23.8356V24.142H92.3742V23.9494C92.3742 14.6514 86.9897 10.2825 79.0575 10.2825ZM111.434 10.2825C101.83 10.2825 95.062 17.0503 95.062 26.287C95.062 35.5238 101.83 42.2916 111.434 42.2916C118.631 42.2916 124.173 38.5356 126.449 32.7484H118.631C117.09 34.7183 114.691 35.6376 111.434 35.6376C107.135 35.6376 103.738 33.3 102.758 28.8698H127.684V26.287C127.684 17.0503 121.039 10.2825 111.434 10.2825ZM111.434 16.8927C115.435 16.8927 118.754 18.9589 119.927 23.0213H102.942C104.106 18.9852 107.433 16.8927 111.434 16.8927ZM162.022 11.0878V26.8998C162.022 37.1171 168.054 42.2914 177.037 42.2914C186.02 42.2914 192.052 37.0558 192.052 26.8998V11.0878H184.733V26.8998C184.733 32.687 181.651 35.4536 177.037 35.4536C172.423 35.4536 169.341 32.687 169.341 26.8998V11.0878H162.022ZM198.085 23.8268C198.085 14.6514 203.504 10.2825 211.436 10.2825C219.369 10.2825 224.736 14.6601 224.736 23.9494V24.142H217.469V23.8356C217.469 18.8889 215.009 17.1378 211.445 17.1378C207.882 17.1378 205.413 18.8889 205.413 23.8443V41.4861H198.093L198.085 23.8268ZM243.691 10.2825C234.699 10.2825 228.667 15.5181 228.667 25.6742L228.632 41.4861H235.96V25.6742C235.96 19.887 239.094 17.1203 243.708 17.1203C248.322 17.1203 251.395 19.887 251.395 25.6742V41.4861H258.723V25.6742C258.723 15.4568 252.682 10.2825 243.691 10.2825ZM217.175 63.9082L222.407 69.1348L217.749 73.8013L206.455 62.5071V57.8406L217.749 46.5463L222.407 51.2041L216.957 56.6589H241.16C242.51 56.6555 243.845 56.3857 245.09 55.8651C246.335 55.3445 247.464 54.5833 248.415 53.6251C249.365 52.667 250.116 51.5307 250.626 50.2814C251.136 49.0322 251.394 47.6946 251.386 46.3453V41.4861H258.723V46.3453C258.719 51.0064 256.863 55.4749 253.565 58.7683C250.266 62.0617 245.795 63.9105 241.134 63.9082H217.175Z" fill="url(#paint0_linear_102_662)"/>
<path d="M49.3113 40.7382L37.0594 48.7492L9.51729 34.3294L21.5904 26.4497L34.5929 33.2613C34.5929 30.5384 34.5929 23.9107 34.5929 17.9572L49.2934 8.32642C49.2934 14.2449 49.2934 28.9362 49.3113 40.7382Z" fill="#8257E5"/>
<path d="M26.8093 23.1138L13.4047 16.1096C13.4047 18.9025 13.4047 25.8279 13.4047 31.869C7.79258 35.5549 2.7703 38.8294 0 40.6242C0 34.6269 0 19.6117 0 7.74837L11.8408 0L39.794 14.6387L26.8093 23.1138Z" fill="#8257E5"/>
<defs>
<linearGradient id="paint0_linear_102_662" x1="71.3004" y1="60.1696" x2="254.101" y2="60.1696" gradientUnits="userSpaceOnUse">
<stop stop-color="#8257E5"/>
<stop offset="0.53" stop-color="#D72891"/>
<stop offset="1" stop-color="#F1594B"/>
</linearGradient>
</defs>
</svg>
